<svg viewBox="0 0 1024 1024" xmlns="http://www.w3.org/2000/svg"><path d="M512 512m-512 0a512 512 0 1 0 1024 0 512 512 0 1 0-1024 0Z" fill="#3A62C8"/><path d="M512 512m-512 0a512 512 0 1 0 1024 0 512 512 0 1 0-1024 0Z" fill="#FFFFFF" fill-opacity=".8"/><path d="M466.88 205.568a59.52 59.52 0 0 1 99.52 46.4 58.048 58.048 0 0 1-25.792 46.912v9.984H716.8a53.76 53.76 0 0 1 53.76 53.76v71.872a68.672 68.672 0 0 1-3.072 130.496v112l-0.128 1.024a38.144 38.144 0 0 1-11.328 22.592l-0.448 0.512a33.728 33.728 0 0 1-21.568 8.128h-0.32l-430.72 0.32a53.76 53.76 0 0 1-53.76-53.76V562.816a68.608 68.608 0 0 1-0.32-128.32v-72.32a54.784 54.784 0 0 1 16.64-37.888 49.536 49.536 0 0 1 36.48-14.208h173.44v-10.24a59.648 59.648 0 0 1-27.904-52.992v-0.064a59.52 59.52 0 0 1 19.328-41.216z m-149.76 172.416v266.24l384.32 0.768V378.048H317.056z" fill="#3A62C8"/><path d="M406.912 550.4a57.6 57.6 0 1 0 0-115.2 57.6 57.6 0 0 0 0 115.2z m207.36 0a57.6 57.6 0 1 0 0-115.2 57.6 57.6 0 0 0 0 115.2z" fill="#3A62C8"/><path d="M740.992 833.984h-460.8c0-33.792 27.392-61.184 61.184-61.184h338.432c33.792 0 61.184 27.392 61.184 61.184z" fill="#3A62C8"/></svg>
